<?xml version="1.0" encoding="UTF-8" standalone="no"?>
<!-- Creator: CorelDRAW X7 -->

<svg
   xmlns:dc="http://purl.org/dc/elements/1.1/"
   xmlns:cc="http://creativecommons.org/ns#"
   xmlns:rdf="http://www.w3.org/1999/02/22-rdf-syntax-ns#"
   xmlns:svg="http://www.w3.org/2000/svg"
   xmlns="http://www.w3.org/2000/svg"
   xmlns:sodipodi="http://sodipodi.sourceforge.net/DTD/sodipodi-0.dtd"
   xmlns:inkscape="http://www.inkscape.org/namespaces/inkscape"
   xml:space="preserve"
   width="185"
   height="188"
   version="1.1"
   style="clip-rule:evenodd;fill-rule:evenodd;image-rendering:optimizeQuality;shape-rendering:geometricPrecision;text-rendering:geometricPrecision"
   viewBox="0 0 5221.1113 5305.7779"
   id="svg2"
   inkscape:version="0.91 r13725"
   sodipodi:docname="logos-modified.svg"><metadata
     id="metadata60"><rdf:RDF><cc:Work
         rdf:about=""><dc:format>image/svg+xml</dc:format><dc:type
           rdf:resource="http://purl.org/dc/dcmitype/StillImage" /><dc:title></dc:title></cc:Work></rdf:RDF></metadata><sodipodi:namedview
     pagecolor="#ffffff"
     bordercolor="#666666"
     borderopacity="1"
     objecttolerance="10"
     gridtolerance="10"
     guidetolerance="10"
     inkscape:pageopacity="0"
     inkscape:pageshadow="2"
     inkscape:window-width="1816"
     inkscape:window-height="1051"
     id="namedview58"
     showgrid="false"
     inkscape:zoom="2.5371827"
     inkscape:cx="178.34291"
     inkscape:cy="143.33499"
     inkscape:window-x="-9"
     inkscape:window-y="-9"
     inkscape:window-maximized="1"
     inkscape:current-layer="Warstwa_x0020_1"
     units="px" /><defs
     id="defs4"><style
       type="text/css"
       id="style6"><![CDATA[
    .fil2 {fill:#02A3F0}
    .fil4 {fill:#4E4E4E}
    .fil8 {fill:#595959}
    .fil9 {fill:#727272}
    .fil0 {fill:#84B702}
    .fil6 {fill:#A0A0A0}
    .fil7 {fill:#D0D0D0}
    .fil3 {fill:#F15413}
    .fil1 {fill:#FEB802}
    .fil10 {fill:#FEFEFE;fill-rule:nonzero}
    .fil5 {fill:#4E4E4E;fill-rule:nonzero}
   ]]></style></defs><g
     id="Warstwa_x0020_1"
     transform="translate(0,-24394.222)"><metadata
       id="CorelCorpID_0Corel-Layer" /><g
       id="g4200"
       transform="matrix(2.1332784,0,0,2.1332784,-332.30183,24651.895)"><path
         id="path10"
         d="m 795,410 c -1,-4 -52,-74 -56,-80 -7,-10 -4,-6 -4,-23 0,-8 0,-7 9,-15 48,-40 94,-83 142,-120 5,-11 11,-32 11,-42 l -231,-1 c -1,10 4,29 -1,35 -55,-1 -230,-1 -262,1 -1,28 1,145 -3,162 l -55,81 82,2 c 3,-1 93,-53 95,-55 7,-4 41,-29 47,-28 4,0 91,54 115,68 5,4 23,18 26,18 l 85,-3 z"
         class="fil0"
         inkscape:connector-curvature="0"
         style="fill:#84b702" /><path
         id="path12"
         d="m 434,445 c 8,0 126,-36 135,-35 37,4 120,35 137,34 l 0,-31 C 691,401 628,363 606,349 566,324 570,325 549,338 l -117,73 2,34 z"
         class="fil1"
         inkscape:connector-curvature="0"
         style="fill:#feb802" /><polygon
         id="polygon14"
         points="662,132 403,133 404,159 661,161 "
         class="fil2"
         style="fill:#02a3f0" /><path
         id="path16"
         d="m 338,445 91,-1 c 0,-2 1,-27 -2,-28 l -89,0 0,29 z"
         class="fil2"
         inkscape:connector-curvature="0"
         style="fill:#02a3f0" /><path
         id="path18"
         d="m 180,148 c 2,2 10,14 13,17 l 29,33 c 10,10 29,33 40,45 4,6 8,8 17,10 38,10 83,28 118,34 l 1,-148 -40,1 c -4,44 -6,7 -6,7 l -172,1 z"
         class="fil3"
         inkscape:connector-curvature="0"
         style="fill:#f15413" /><path
         id="path20"
         d="m 712,445 87,0 c 0,-4 1,-24 -1,-26 -2,-3 0,-5 -8,-4 -16,0 -71,1 -79,3 l 1,27 z"
         class="fil2"
         inkscape:connector-curvature="0"
         style="fill:#02a3f0" /><path
         id="path22"
         d="m 714,419 c 8,-1 57,-1 73,-1 7,0 6,-2 8,0 2,3 1,21 1,26 l -82,0 0,-25 z m -372,-2 81,0 c 3,2 2,24 2,26 l -84,1 1,-27 z m 94,24 -1,-27 117,-73 c 21,-13 11,-14 51,11 l 84,53 c 5,3 12,6 16,10 l 0,26 c -4,1 -84,-21 -99,-25 -9,-3 -26,-8 -34,-9 -9,-1 -126,34 -134,34 z m -30,-307 254,-1 0,25 -254,-1 0,-23 z m -219,17 163,0 c 0,5 0,32 1,35 1,2 5,4 8,1 5,-3 1,-38 2,-46 l 34,0 0,140 c -9,-1 -54,-14 -67,-18 -11,-3 -22,-6 -33,-9 -6,-1 -11,-3 -16,-4 -9,-3 -8,-4 -13,-9 -11,-12 -30,-34 -40,-45 l -30,-33 c -2,-3 -7,-9 -9,-12 z m 603,256 -77,1 c -3,0 -6,-4 -12,-7 -24,-15 -127,-80 -131,-81 -6,-1 -42,23 -49,28 -2,1 -92,58 -95,59 l -78,-1 54,-75 c 5,-6 4,-7 4,-15 0,-25 0,-50 0,-74 0,-24 -1,-50 0,-74 8,-1 23,0 32,0 l 164,1 c 14,0 54,2 66,-1 5,-6 2,-24 2,-34 l 221,-1 c -1,6 -5,18 -7,24 -4,15 -3,11 -12,19 l -33,29 c -19,15 -46,40 -66,56 -11,10 -22,19 -33,28 -9,8 -9,6 -9,22 0,16 -1,14 7,24 4,6 50,68 52,72 z M 395,130 c -12,0 -36,-2 -44,2 -3,11 5,8 -40,8 l -123,0 c -10,0 -19,-2 -19,7 0,3 18,22 21,25 l 11,13 c 4,4 7,7 11,12 2,2 3,3 5,6 3,2 3,4 5,6 l 44,48 35,10 c 6,2 12,4 18,5 13,3 24,7 36,10 l 36,10 2,23 c 2,10 1,9 -6,18 l -22,30 c -7,11 -14,20 -22,31 -2,2 -3,4 -5,7 -8,10 -7,12 -7,32 0,6 -2,22 5,22 l 87,0 c 9,0 61,-14 73,-18 11,-3 24,-6 35,-9 l 37,-10 107,28 c 6,1 12,3 18,5 5,1 14,4 19,4 l 88,0 c 4,0 7,-3 7,-7 l 0,-28 c 0,-9 -2,-11 -5,-16 l -53,-71 c -1,-3 -2,-4 -4,-7 -5,-6 -3,-10 -3,-22 0,-3 38,-35 44,-40 l 100,-85 c 6,-5 6,-7 9,-18 1,-5 3,-10 4,-16 8,-28 14,-23 -56,-23 -66,0 -132,0 -198,0 l -224,1 c -20,0 -24,-3 -26,7 z"
         class="fil4"
         inkscape:connector-curvature="0"
         style="fill:#4e4e4e" /><path
         id="path24"
         d="m 1110,340 c -5,5 -6,12 -4,21 l 17,83 c 2,9 -1,13 -10,13 l -26,0 c -8,0 -13,-4 -15,-12 l -15,-77 c -2,-9 -5,-13 -8,-13 -3,0 -5,4 -5,13 l 0,77 c 0,8 -4,12 -13,12 l -26,0 c -8,0 -13,-4 -13,-12 l 0,-309 c 0,-8 5,-12 13,-12 l 65,0 c 34,0 51,17 51,51 l 0,126 c 0,16 -4,29 -11,39 z m -53,-165 c -9,0 -13,4 -13,13 l 0,102 c 0,9 4,13 13,13 8,0 13,-4 13,-13 l 0,-102 c 0,-9 -5,-13 -13,-13 z m 96,0 c -8,0 -12,-4 -12,-13 l 0,-26 c 0,-8 4,-12 12,-12 l 46,0 44,0 c 9,0 13,4 13,12 l 0,26 c 0,9 -1,17 -3,26 l -57,205 c -3,9 0,13 9,13 l 38,0 c 9,0 13,4 13,13 l 0,26 c 0,8 -4,12 -13,12 l -90,0 c -8,0 -12,-4 -12,-12 l 0,-26 c 0,-9 1,-18 4,-27 l 56,-203 c 3,-9 0,-14 -9,-14 l -39,0 z m 127,-38 c 0,-9 5,-13 13,-13 l 65,0 c 8,0 12,4 12,12 l 0,26 c 0,9 -4,13 -13,13 l -12,0 c -9,0 -13,4 -13,13 l 0,70 c 0,9 4,13 13,13 8,0 12,4 12,13 l 0,26 c 0,8 -4,13 -12,13 -9,0 -13,4 -13,12 l 0,58 c 0,9 4,13 13,13 l 13,0 c 8,0 12,4 12,13 l 0,26 c 0,8 -4,12 -12,12 l -65,0 c -8,0 -13,-4 -13,-12 l 0,-308 z m 116,0 c 0,-9 5,-13 16,-13 l 43,0 c 11,0 17,5 19,17 l 32,219 c 4,22 7,22 10,0 l 31,-219 c 2,-12 8,-17 19,-17 l 44,0 c 11,0 17,4 17,13 l 0,307 c 0,9 -4,13 -12,13 l -25,0 c -8,0 -12,-4 -12,-12 l 0,-153 c 0,-37 -2,-37 -7,0 l -19,152 c -1,9 -6,13 -15,13 l -51,0 c -9,0 -14,-4 -15,-13 l -19,-152 c -5,-37 -7,-37 -7,0 l 0,153 c 0,8 -4,12 -12,12 l -25,0 c -8,0 -12,-4 -12,-13 l 0,-307 z m 295,-13 c 9,0 13,4 13,13 l 0,308 c 0,8 -4,12 -13,12 l -26,0 c -8,0 -12,-4 -12,-12 l 0,-308 c 0,-9 4,-13 12,-13 l 26,0 z m 39,51 c 0,-34 17,-51 51,-51 l 26,0 c 34,0 51,17 51,51 l 0,231 c 0,34 -17,51 -51,51 l -26,0 c -34,0 -51,-17 -51,-51 l 0,-231 z m 64,0 c -9,0 -13,4 -13,13 l 0,205 c 0,9 4,13 13,13 8,0 13,-4 13,-13 l 0,-205 c 0,-9 -5,-13 -13,-13 z m 90,0 c 0,-34 17,-51 51,-51 l 26,0 c 34,0 51,17 51,51 l 0,51 c 0,9 -4,13 -13,13 l -26,0 c -8,0 -12,-4 -12,-13 l 0,-38 c 0,-9 -5,-13 -13,-13 -9,0 -13,4 -13,13 l 0,64 c 0,9 4,13 13,13 l 13,0 c 34,0 51,17 51,51 l 0,90 c 0,34 -17,51 -51,51 l -26,0 c -34,0 -51,-17 -51,-51 l 0,-51 c 0,-9 4,-13 13,-13 l 25,0 c 9,0 13,4 13,13 l 0,38 c 0,9 4,13 13,13 8,0 13,-4 13,-13 l 0,-64 c 0,-9 -5,-13 -13,-13 l -13,0 c -34,0 -51,-17 -51,-51 l 0,-90 z m 179,282 c -8,0 -12,-4 -12,-12 l 0,-116 c 0,-9 -3,-13 -7,-13 -4,0 -6,-4 -6,-13 l 0,-25 c 0,-9 2,-14 6,-15 4,-1 7,-4 7,-11 l 0,-115 c 0,-9 4,-13 12,-13 l 26,0 c 9,0 13,4 13,12 l 0,103 c 0,7 3,11 10,9 l 19,-4 c 6,-2 9,2 9,11 l 0,25 c 0,9 -3,14 -9,15 l -19,4 c -7,2 -10,8 -10,17 l 0,77 c 0,9 4,13 13,13 l 13,0 c 8,0 12,4 12,13 l 0,26 c 0,8 -4,12 -12,12 l -65,0 z m 103,-282 c 0,-34 17,-51 51,-51 l 26,0 c 34,0 51,17 51,51 l 0,231 c 0,34 -17,51 -51,51 l -26,0 c -34,0 -51,-17 -51,-51 l 0,-231 z m 64,0 c -9,0 -13,4 -13,13 l 0,205 c 0,9 4,13 13,13 9,0 13,-4 13,-13 l 0,-205 c 0,-9 -4,-13 -13,-13 z m 206,-51 c 8,0 12,4 12,13 l 0,308 c 0,8 -4,12 -12,12 l -26,0 c -9,0 -13,-4 -13,-12 l 0,-308 c 0,-9 4,-13 13,-13 l 26,0 z m 141,0 c 8,0 13,4 13,12 l 0,26 c 0,9 -4,13 -13,13 l -13,0 c -9,0 -13,4 -13,13 l 0,257 c 0,8 -4,12 -13,12 l -25,0 c -9,0 -13,-4 -13,-12 l 0,-257 c 0,-9 -4,-13 -13,-13 l -13,0 c -8,0 -13,-4 -13,-13 l 0,-26 c 0,-8 5,-12 13,-12 l 52,0 51,0 z"
         class="fil5"
         inkscape:connector-curvature="0"
         style="fill:#4e4e4e;fill-rule:nonzero" /></g><g
       id="g4210"
       transform="matrix(2.1332784,0,0,2.1332784,-332.30183,25612.85)"><path
         id="path26"
         d="m 795,793 c -1,-4 -52,-75 -56,-80 -7,-10 -4,-7 -4,-23 0,-8 0,-7 9,-15 48,-40 94,-83 142,-120 5,-11 11,-33 11,-42 l -231,-1 c -1,10 4,29 -1,35 -55,-1 -230,-1 -262,1 -1,28 1,144 -3,162 l -55,81 82,2 c 3,-1 93,-54 95,-55 7,-4 41,-29 47,-28 4,0 91,54 115,68 5,4 23,17 26,18 l 85,-3 z"
         class="fil6"
         inkscape:connector-curvature="0"
         style="fill:#a0a0a0" /><path
         id="path28"
         d="m 434,828 c 8,0 126,-36 135,-35 37,4 120,35 137,34 l 0,-31 C 691,783 628,746 606,732 566,706 570,708 549,721 l -117,73 2,34 z"
         class="fil7"
         inkscape:connector-curvature="0"
         style="fill:#d0d0d0" /><polygon
         id="polygon30"
         points="662,515 403,516 404,542 661,543 "
         class="fil8"
         style="fill:#595959" /><path
         id="path32"
         d="m 338,828 91,-1 c 0,-2 1,-27 -2,-28 l -89,0 0,29 z"
         class="fil8"
         inkscape:connector-curvature="0"
         style="fill:#595959" /><path
         id="path34"
         d="m 180,530 c 2,3 10,15 13,18 l 29,33 c 10,10 29,33 40,45 4,6 8,8 17,10 38,10 83,28 118,34 l 1,-148 -40,1 c -4,44 -6,7 -6,7 l -172,0 z"
         class="fil9"
         inkscape:connector-curvature="0"
         style="fill:#727272" /><path
         id="path36"
         d="m 712,828 87,0 c 0,-4 1,-24 -1,-27 -2,-2 0,-4 -8,-4 -16,1 -71,2 -79,4 l 1,27 z"
         class="fil8"
         inkscape:connector-curvature="0"
         style="fill:#595959" /><path
         id="path38"
         d="m 714,802 c 8,-2 57,-1 73,-1 7,-1 6,-2 8,0 2,3 1,21 1,26 l -82,0 0,-25 z m -372,-2 81,0 c 3,1 2,24 2,26 l -84,1 1,-27 z m 94,24 -1,-27 117,-73 c 21,-13 11,-14 51,11 l 84,53 c 5,3 12,6 16,10 l 0,26 c -4,0 -84,-21 -99,-25 -9,-3 -26,-8 -34,-9 -9,-1 -126,34 -134,34 z m -30,-307 254,-1 0,25 -254,-1 0,-23 z m -219,17 163,0 c 0,5 0,32 1,35 1,2 5,4 8,1 5,-3 1,-38 2,-46 l 34,0 0,140 c -9,-1 -54,-14 -67,-18 -11,-3 -22,-6 -33,-9 -6,-2 -11,-3 -16,-4 -9,-3 -8,-4 -13,-9 -11,-12 -30,-34 -40,-45 l -30,-33 c -2,-4 -7,-9 -9,-12 z m 603,256 -77,1 c -3,0 -6,-4 -12,-7 -24,-15 -127,-80 -131,-81 -6,-1 -42,23 -49,28 -2,1 -92,58 -95,58 l -78,0 54,-75 c 5,-6 4,-7 4,-15 0,-25 0,-50 0,-74 0,-25 -1,-50 0,-74 8,-1 23,0 32,0 l 164,1 c 14,0 54,2 66,-1 5,-6 2,-24 2,-35 l 221,0 c -1,6 -5,18 -7,24 -4,15 -3,11 -12,19 l -33,28 c -19,16 -46,40 -66,57 -11,9 -22,19 -33,28 -9,8 -9,6 -9,22 0,16 -1,14 7,24 4,5 50,68 52,72 z M 395,513 c -12,0 -36,-2 -44,2 -3,11 5,8 -40,8 l -123,0 c -10,0 -19,-2 -19,7 0,3 18,22 21,25 l 11,13 c 4,4 7,7 11,11 2,3 3,4 5,7 3,2 3,3 5,6 l 44,48 35,10 c 6,2 12,4 18,5 13,3 24,7 36,10 l 36,10 2,23 c 2,10 1,8 -6,18 l -22,30 c -7,10 -14,20 -22,30 -2,3 -3,5 -5,8 -8,10 -7,12 -7,32 0,6 -2,22 5,22 l 87,0 c 9,0 61,-15 73,-18 11,-3 24,-6 35,-10 l 37,-9 107,28 c 6,1 12,3 18,5 5,1 14,4 19,4 l 88,0 c 4,0 7,-3 7,-7 l 0,-29 c 0,-8 -2,-10 -5,-15 l -53,-71 c -1,-3 -2,-4 -4,-7 -5,-6 -3,-10 -3,-22 0,-3 38,-35 44,-40 l 100,-85 c 6,-5 6,-8 9,-18 1,-6 3,-10 4,-16 8,-28 14,-23 -56,-23 -66,0 -132,0 -198,0 l -224,1 c -20,0 -24,-3 -26,7 z"
         class="fil4"
         inkscape:connector-curvature="0"
         style="fill:#4e4e4e" /><path
         id="path40"
         d="m 1110,723 c -5,5 -6,11 -4,21 l 17,82 c 2,10 -1,14 -10,14 l -26,0 c -8,0 -13,-4 -15,-13 l -15,-77 c -2,-8 -5,-12 -8,-12 -3,0 -5,4 -5,12 l 0,77 c 0,9 -4,13 -13,13 l -26,0 c -8,0 -13,-4 -13,-12 l 0,-309 c 0,-8 5,-13 13,-13 l 65,0 c 34,0 51,18 51,52 l 0,126 c 0,16 -4,29 -11,39 z m -53,-165 c -9,0 -13,4 -13,13 l 0,102 c 0,9 4,13 13,13 8,0 13,-4 13,-13 l 0,-102 c 0,-9 -5,-13 -13,-13 z m 96,0 c -8,0 -12,-4 -12,-13 l 0,-26 c 0,-8 4,-13 12,-13 l 46,0 44,0 c 9,0 13,5 13,13 l 0,26 c 0,9 -1,17 -3,25 l -57,206 c -3,9 0,13 9,13 l 38,0 c 9,0 13,4 13,13 l 0,25 c 0,9 -4,13 -13,13 l -90,0 c -8,0 -12,-4 -12,-13 l 0,-25 c 0,-9 1,-18 4,-27 l 56,-203 c 3,-9 0,-14 -9,-14 l -39,0 z m 127,-38 c 0,-9 5,-14 13,-14 l 65,0 c 8,0 12,5 12,13 l 0,26 c 0,9 -4,13 -13,13 l -12,0 c -9,0 -13,4 -13,13 l 0,70 c 0,9 4,13 13,13 8,0 12,4 12,13 l 0,26 c 0,8 -4,12 -12,12 -9,0 -13,5 -13,13 l 0,58 c 0,9 4,13 13,13 l 13,0 c 8,0 12,4 12,13 l 0,25 c 0,9 -4,13 -12,13 l -65,0 c -8,0 -13,-4 -13,-13 l 0,-307 z m 116,0 c 0,-9 5,-14 16,-14 l 43,0 c 11,0 17,6 19,17 l 32,219 c 4,23 7,23 10,0 l 31,-219 c 2,-11 8,-17 19,-17 l 44,0 c 11,0 17,5 17,14 l 0,307 c 0,9 -4,13 -12,13 l -25,0 c -8,0 -12,-4 -12,-13 l 0,-152 c 0,-37 -2,-37 -7,0 l -19,151 c -1,10 -6,14 -15,14 l -51,0 c -9,0 -14,-4 -15,-14 l -19,-151 c -5,-37 -7,-37 -7,0 l 0,152 c 0,9 -4,13 -12,13 l -25,0 c -8,0 -12,-4 -12,-13 l 0,-307 z m 295,-14 c 9,0 13,5 13,14 l 0,307 c 0,9 -4,13 -13,13 l -26,0 c -8,0 -12,-4 -12,-13 l 0,-307 c 0,-9 4,-14 12,-14 l 26,0 z m 39,52 c 0,-34 17,-52 51,-52 l 26,0 c 34,0 51,18 51,52 l 0,231 c 0,34 -17,51 -51,51 l -26,0 c -34,0 -51,-17 -51,-51 l 0,-231 z m 64,0 c -9,0 -13,4 -13,13 l 0,205 c 0,9 4,13 13,13 8,0 13,-4 13,-13 l 0,-205 c 0,-9 -5,-13 -13,-13 z m 90,0 c 0,-34 17,-52 51,-52 l 26,0 c 34,0 51,18 51,52 l 0,51 c 0,9 -4,13 -13,13 l -26,0 c -8,0 -12,-4 -12,-13 l 0,-38 c 0,-9 -5,-13 -13,-13 -9,0 -13,4 -13,12 l 0,65 c 0,8 4,13 13,13 l 13,0 c 34,0 51,17 51,51 l 0,90 c 0,34 -17,51 -51,51 l -26,0 c -34,0 -51,-17 -51,-51 l 0,-51 c 0,-9 4,-13 13,-13 l 25,0 c 9,0 13,4 13,13 l 0,38 c 0,9 4,13 13,13 8,0 13,-4 13,-13 l 0,-64 c 0,-9 -5,-13 -13,-13 l -13,0 c -34,0 -51,-17 -51,-51 l 0,-90 z m 179,282 c -8,0 -12,-4 -12,-13 l 0,-115 c 0,-9 -3,-13 -7,-13 -4,0 -6,-4 -6,-13 l 0,-25 c 0,-9 2,-14 6,-15 4,-1 7,-4 7,-11 l 0,-115 c 0,-9 4,-14 12,-14 l 26,0 c 9,0 13,5 13,13 l 0,103 c 0,7 3,11 10,9 l 19,-4 c 6,-2 9,2 9,10 l 0,26 c 0,9 -3,14 -9,15 l -19,4 c -7,2 -10,7 -10,17 l 0,77 c 0,9 4,13 13,13 l 13,0 c 8,0 12,4 12,13 l 0,25 c 0,9 -4,13 -12,13 l -65,0 z m 103,-282 c 0,-34 17,-52 51,-52 l 26,0 c 34,0 51,18 51,52 l 0,231 c 0,34 -17,51 -51,51 l -26,0 c -34,0 -51,-17 -51,-51 l 0,-231 z m 64,0 c -9,0 -13,4 -13,13 l 0,205 c 0,9 4,13 13,13 9,0 13,-4 13,-13 l 0,-205 c 0,-9 -4,-13 -13,-13 z m 206,-52 c 8,0 12,5 12,14 l 0,307 c 0,9 -4,13 -12,13 l -26,0 c -9,0 -13,-4 -13,-13 l 0,-307 c 0,-9 4,-14 13,-14 l 26,0 z m 141,0 c 8,0 13,5 13,13 l 0,26 c 0,9 -4,13 -13,13 l -13,0 c -9,0 -13,4 -13,13 l 0,256 c 0,9 -4,13 -13,13 l -25,0 c -9,0 -13,-4 -13,-13 l 0,-256 c 0,-9 -4,-13 -13,-13 l -13,0 c -8,0 -13,-4 -13,-13 l 0,-26 c 0,-8 5,-13 13,-13 l 52,0 51,0 z"
         class="fil5"
         inkscape:connector-curvature="0"
         style="fill:#4e4e4e;fill-rule:nonzero" /></g><g
       id="g4220"
       transform="matrix(2.1332784,0,0,2.1332784,-332.30183,26539.673)"><path
         id="path42"
         d="m 795,1192 c -1,-4 -52,-75 -56,-80 -7,-10 -4,-7 -4,-23 0,-8 0,-7 9,-15 48,-40 94,-83 142,-120 5,-11 11,-33 11,-42 l -231,-1 c -1,10 4,29 -1,35 -55,-1 -230,-1 -262,1 -1,28 1,144 -3,162 l -55,81 82,2 c 3,-1 93,-54 95,-55 7,-4 41,-29 47,-28 4,0 91,54 115,68 5,4 23,17 26,18 l 85,-3 z"
         class="fil0"
         inkscape:connector-curvature="0"
         style="fill:#84b702" /><path
         id="path44"
         d="m 434,1227 c 8,0 126,-36 135,-35 37,4 120,35 137,34 l 0,-32 c -15,-12 -78,-49 -100,-63 -40,-26 -36,-24 -57,-11 l -117,73 2,34 z"
         class="fil1"
         inkscape:connector-curvature="0"
         style="fill:#feb802" /><polygon
         id="polygon46"
         points="404,941 661,942 662,914 403,914 "
         class="fil2"
         style="fill:#02a3f0" /><path
         id="path48"
         d="m 338,1227 91,-1 c 0,-2 1,-27 -2,-28 l -89,0 0,29 z"
         class="fil2"
         inkscape:connector-curvature="0"
         style="fill:#02a3f0" /><path
         id="path50"
         d="m 180,929 c 2,3 10,15 13,18 l 29,33 c 10,10 29,33 40,45 4,6 8,8 17,10 38,10 83,28 118,34 l 1,-148 -40,1 c -4,44 -6,7 -6,7 l -172,0 z"
         class="fil3"
         inkscape:connector-curvature="0"
         style="fill:#f15413" /><path
         id="path52"
         d="m 712,1227 87,0 c 0,-4 1,-24 -1,-27 -2,-2 0,-4 -8,-4 -16,1 -71,2 -79,4 l 1,27 z"
         class="fil2"
         inkscape:connector-curvature="0"
         style="fill:#02a3f0" /><path
         id="path54"
         d="m 714,1201 c 8,-2 57,-1 73,-1 7,-1 6,-2 8,0 2,3 1,21 1,26 l -82,-1 0,-24 z m -372,-2 81,0 c 3,1 2,24 2,26 l -84,1 1,-27 z m 94,24 -1,-27 117,-73 c 21,-13 11,-14 51,11 l 84,52 c 5,4 12,7 16,11 l 0,26 c -4,0 -84,-21 -99,-25 -9,-3 -26,-8 -34,-9 -9,-1 -126,34 -134,34 z m -30,-307 254,-1 0,25 -254,-1 0,-23 z m -219,17 163,0 c 0,5 0,32 1,35 1,2 5,4 8,1 5,-3 1,-38 2,-46 l 34,0 0,140 c -9,-1 -54,-14 -67,-18 -11,-3 -22,-6 -33,-9 -6,-2 -11,-3 -16,-5 -9,-2 -8,-3 -13,-8 -11,-12 -30,-34 -40,-45 l -30,-33 c -2,-4 -7,-9 -9,-12 z m 603,256 -77,1 c -3,0 -6,-4 -12,-7 -24,-15 -127,-80 -131,-81 -6,-1 -42,23 -49,28 -2,1 -92,58 -95,58 l -78,0 54,-75 c 5,-6 4,-7 4,-16 0,-24 0,-49 0,-73 0,-25 -1,-50 0,-74 8,-1 23,0 32,0 l 164,1 c 14,0 54,2 66,-1 5,-6 2,-24 2,-35 l 221,0 c -1,6 -5,18 -7,24 -4,15 -3,10 -12,19 l -33,28 c -19,16 -46,40 -66,57 -11,9 -22,19 -33,28 -9,8 -9,6 -9,22 0,16 -1,14 7,24 4,5 50,68 52,72 z M 395,912 c -12,0 -36,-2 -44,1 -3,12 5,9 -40,9 l -123,0 c -10,0 -19,-2 -19,7 0,3 18,22 21,25 l 11,12 c 4,5 7,8 11,12 2,3 3,4 5,7 3,2 3,3 5,6 l 44,48 35,10 c 6,2 12,4 18,5 13,3 24,7 36,10 l 36,10 2,23 c 2,10 1,8 -6,18 l -22,30 c -7,10 -14,20 -22,30 -2,3 -3,5 -5,8 -8,10 -7,12 -7,32 0,6 -2,22 5,22 l 87,0 c 9,0 61,-15 73,-18 11,-4 24,-6 35,-10 l 37,-9 107,28 c 6,1 12,3 18,4 5,2 14,5 19,5 l 88,0 c 4,0 7,-3 7,-8 l 0,-28 c 0,-8 -2,-10 -5,-15 l -53,-72 c -1,-2 -2,-3 -4,-6 -5,-6 -3,-10 -3,-22 0,-3 38,-35 44,-40 l 100,-85 c 6,-5 6,-8 9,-18 1,-6 3,-10 4,-16 8,-28 14,-23 -56,-23 -66,0 -132,0 -198,0 l -224,1 c -20,0 -24,-3 -26,7 z"
         class="fil4"
         inkscape:connector-curvature="0"
         style="fill:#4e4e4e" /><path
         id="path56"
         d="m 1110,1122 c -5,4 -6,11 -4,21 l 17,82 c 2,10 -1,14 -10,14 l -26,0 c -8,0 -13,-4 -15,-13 l -15,-77 c -2,-8 -5,-13 -8,-13 -3,0 -5,5 -5,13 l 0,77 c 0,9 -4,13 -13,13 l -26,0 c -8,0 -13,-4 -13,-12 l 0,-309 c 0,-8 5,-13 13,-13 l 65,0 c 34,0 51,17 51,52 l 0,126 c 0,16 -4,29 -11,39 z m -53,-165 c -9,0 -13,4 -13,13 l 0,102 c 0,9 4,13 13,13 8,0 13,-4 13,-13 l 0,-102 c 0,-9 -5,-13 -13,-13 z m 96,0 c -8,0 -12,-5 -12,-13 l 0,-26 c 0,-8 4,-13 12,-13 l 46,0 44,0 c 9,0 13,5 13,13 l 0,26 c 0,8 -1,17 -3,25 l -57,206 c -3,9 0,13 9,13 l 38,0 c 9,0 13,4 13,13 l 0,25 c 0,9 -4,13 -13,13 l -90,0 c -8,0 -12,-4 -12,-13 l 0,-25 c 0,-9 1,-18 4,-28 l 56,-202 c 3,-9 0,-14 -9,-14 l -39,0 z m 127,-39 c 0,-8 5,-13 13,-13 l 65,0 c 8,0 12,5 12,13 l 0,26 c 0,8 -4,13 -13,13 l -12,0 c -9,0 -13,4 -13,13 l 0,70 c 0,9 4,13 13,13 8,0 12,4 12,13 l 0,26 c 0,8 -4,12 -12,12 -9,0 -13,5 -13,13 l 0,58 c 0,9 4,13 13,13 l 13,0 c 8,0 12,4 12,13 l 0,25 c 0,9 -4,13 -12,13 l -65,0 c -8,0 -13,-4 -13,-13 l 0,-308 z m 116,0 c 0,-8 5,-13 16,-13 l 43,0 c 11,0 17,6 19,17 l 32,219 c 4,23 7,23 10,0 l 31,-219 c 2,-11 8,-17 19,-17 l 44,0 c 11,0 17,5 17,13 l 0,308 c 0,9 -4,13 -12,13 l -25,0 c -8,0 -12,-4 -12,-13 l 0,-152 c 0,-37 -2,-37 -7,0 l -19,151 c -1,10 -6,14 -15,14 l -51,0 c -9,0 -14,-4 -15,-14 l -19,-151 c -5,-37 -7,-37 -7,0 l 0,152 c 0,9 -4,13 -12,13 l -25,0 c -8,0 -12,-4 -12,-13 l 0,-308 z m 295,-13 c 9,0 13,5 13,13 l 0,308 c 0,9 -4,13 -13,13 l -26,0 c -8,0 -12,-4 -12,-13 l 0,-308 c 0,-8 4,-13 12,-13 l 26,0 z m 39,52 c 0,-35 17,-52 51,-52 l 26,0 c 34,0 51,17 51,52 l 0,231 c 0,34 -17,51 -51,51 l -26,0 c -34,0 -51,-17 -51,-51 l 0,-231 z m 64,0 c -9,0 -13,4 -13,13 l 0,205 c 0,9 4,13 13,13 8,0 13,-4 13,-13 l 0,-205 c 0,-9 -5,-13 -13,-13 z m 90,0 c 0,-35 17,-52 51,-52 l 26,0 c 34,0 51,17 51,52 l 0,51 c 0,9 -4,13 -13,13 l -26,0 c -8,0 -12,-4 -12,-13 l 0,-38 c 0,-9 -5,-13 -13,-13 -9,0 -13,4 -13,12 l 0,65 c 0,8 4,13 13,13 l 13,0 c 34,0 51,17 51,51 l 0,90 c 0,34 -17,51 -51,51 l -26,0 c -34,0 -51,-17 -51,-51 l 0,-52 c 0,-8 4,-12 13,-12 l 25,0 c 9,0 13,4 13,12 l 0,39 c 0,9 4,13 13,13 8,0 13,-4 13,-13 l 0,-64 c 0,-9 -5,-13 -13,-13 l -13,0 c -34,0 -51,-17 -51,-51 l 0,-90 z m 179,282 c -8,0 -12,-4 -12,-13 l 0,-115 c 0,-9 -3,-13 -7,-13 -4,0 -6,-4 -6,-13 l 0,-26 c 0,-8 2,-13 6,-14 4,-1 7,-5 7,-11 l 0,-116 c 0,-8 4,-13 12,-13 l 26,0 c 9,0 13,5 13,13 l 0,102 c 0,8 3,11 10,10 l 19,-4 c 6,-2 9,2 9,10 l 0,26 c 0,9 -3,14 -9,15 l -19,4 c -7,2 -10,7 -10,17 l 0,77 c 0,9 4,13 13,13 l 13,0 c 8,0 12,4 12,13 l 0,25 c 0,9 -4,13 -12,13 l -65,0 z m 103,-282 c 0,-35 17,-52 51,-52 l 26,0 c 34,0 51,17 51,52 l 0,231 c 0,34 -17,51 -51,51 l -26,0 c -34,0 -51,-17 -51,-51 l 0,-231 z m 64,0 c -9,0 -13,4 -13,13 l 0,205 c 0,9 4,13 13,13 9,0 13,-4 13,-13 l 0,-205 c 0,-9 -4,-13 -13,-13 z m 206,-52 c 8,0 12,5 12,13 l 0,308 c 0,9 -4,13 -12,13 l -26,0 c -9,0 -13,-4 -13,-13 l 0,-308 c 0,-8 4,-13 13,-13 l 26,0 z m 141,0 c 8,0 13,5 13,13 l 0,26 c 0,8 -4,13 -13,13 l -13,0 c -9,0 -13,4 -13,13 l 0,256 c 0,9 -4,13 -13,13 l -25,0 c -9,0 -13,-4 -13,-13 l 0,-256 c 0,-9 -4,-13 -13,-13 l -13,0 c -8,0 -13,-5 -13,-13 l 0,-26 c 0,-8 5,-13 13,-13 l 52,0 51,0 z"
         class="fil10"
         inkscape:connector-curvature="0"
         style="fill:#fefefe;fill-rule:nonzero" /></g></g></svg>